<svg width="69" height="61" viewBox="0 0 69 61" fill="none" xmlns="http://www.w3.org/2000/svg">
<path fill-rule="evenodd" clip-rule="evenodd" d="M65.0493 0C67.2312 0 69 2.56688 69 5.7333V47.9264C69 51.0929 67.2312 53.6598 65.0493 53.6598H13L0 61V35.6436L1.60756e-05 5.73331C1.60756e-05 2.56689 1.76882 0 3.95075 0H65.0493Z" fill="#151515"/>
<path fill-rule="evenodd" clip-rule="evenodd" d="M53.5485 29.9897C53.4372 32.0613 52.825 34.0793 51.7119 36.0438C49.1883 40.4789 45.019 43.2904 39.2042 44.4782C33.9451 45.5525 29.3939 44.9679 25.5505 42.7242C21.2524 40.2171 18.5575 36.2913 17.4657 30.9468C16.3215 25.3457 17.2857 20.472 20.3583 16.3256C23.0138 12.7544 26.7574 10.4753 31.5888 9.4883C37.4465 8.29172 42.3503 9.2943 46.3003 12.496C49.7695 15.3061 52.0631 19.4475 53.1811 24.9203L53.3907 25.9465L28.6347 31.0036C29.2093 33.3805 30.2991 35.1176 31.9041 36.2151C33.5003 37.2698 35.4314 37.5657 37.6975 37.1027C40.4767 36.535 42.3398 34.8627 43.287 32.0859L53.5485 29.9897ZM29.2881 24.2532C29.4998 25.2888 28.8318 26.2999 27.7962 26.5116C26.7605 26.7232 25.7494 26.0553 25.5378 25.0196C25.3261 23.984 25.9941 22.9729 27.0297 22.7612C28.0654 22.5496 29.0765 23.2176 29.2881 24.2532ZM45.4766 22.8984C46.5122 22.6868 47.1802 21.6757 46.9685 20.64C46.7569 19.6044 45.7458 18.9364 44.7101 19.1481C43.6745 19.3597 43.0065 20.3708 43.2182 21.4065C43.4298 22.4421 44.4409 23.1101 45.4766 22.8984Z" fill="white"/>
</svg>
