<svg width="301" height="328" viewBox="0 0 301 328" fill="none" xmlns="http://www.w3.org/2000/svg">
<path d="M271.187 297.893C241.041 313.25 223.815 318.007 192.906 324.145C149.777 328.925 125.597 328.448 82.4686 324.145H33.3825C-0.108494 329.873 -1.55964 310.646 0.802095 269.949C0.579387 218.296 4.55426 199.933 13.92 172.988C27.0292 142.4 33.2308 124.251 40.5772 88.729C42.81 62.5196 44.9276 52.1628 49.8862 39.6135L67.6584 14.6325C78.4582 -1.34017 85.8777 -0.112901 98.9702 1.08323L142.976 18.4432C151.381 25.6927 151.197 28.6971 147.207 33.2626L142.976 36.65V43.4244C159.926 55.6315 153.438 64.427 133.667 81.1078C121.01 99.6397 110.663 103.63 90.9307 108.206C89.8821 171.477 88.7597 205.28 82.4686 252.166H88.3926C95.2366 233.266 100.371 222.786 116.743 204.743C174.803 152.066 203.598 168.122 255.53 189.924C322.117 253.066 304.972 269.569 271.187 297.893Z" fill="#FFD131"/>
<path d="M90.561 27.7053L97.3939 38.0637M97.3939 38.0637C100.81 39.2146 108.327 40.8259 111.06 38.0637C111.06 38.0637 117.893 31.1581 128.142 31.1581M97.3939 38.0637C95.1163 39.2146 91.2443 44.2787 93.9775 55.3277C97.3939 54.1768 104.91 52.5655 107.643 55.3277V58.7805C114.476 54.1768 130.875 45.6599 141.808 48.4221" stroke="#D8AB0D" stroke-width="5"/>
</svg>
