<svg width="256" height="363" viewBox="0 0 256 363" fill="none" xmlns="http://www.w3.org/2000/svg">
<path d="M39.9527 219.161C43.3102 149.548 30.2291 108.291 0 33.6769C19.6424 19.4814 36.5381 10.5451 54.4142 5.47437C61.9232 3.34439 69.6052 1.8965 77.7364 1.02743C94.4345 -0.757276 113.027 -0.100977 135.907 2.10193C131.76 64.8321 133.266 100.35 137.254 163.819C147.395 215.448 156.117 242.777 183.059 285.376C204.849 300.419 219.118 305.826 245.838 313.676C261.759 334.684 256.79 343.285 245.838 358.148H164.737C135.527 335.995 118.18 324.562 86.0604 305.321V363H45.1057L30.5 295C22.8946 281.898 22.8306 273.354 27.0532 256.267L39.9527 219.161Z" fill="#FFC90D"/>
<path d="M77.5 1C67.5 1.8 58 4.33333 54.5 5.5C66.9 31.9 70 88.1667 70 113L86.5 114C87.7 58.4 81 15.5 77.5 1Z" fill="#D8AB0D"/>
<path d="M86 305C72.4 297.8 42.5 295.667 30.5 295L45 363H86.5L86 305Z" fill="#D8AB0D"/>
</svg>
