<svg width="189" height="154" viewBox="0 0 189 154" fill="none" xmlns="http://www.w3.org/2000/svg">
<path d="M189 154H0V64.523V42.4938V40.8619H8.41728V25.3598H31.2277V40.8619H36.1157V34.6066H38.0166V25.3598H61.6417V34.6066H63.8141V40.8619H67.8874V24H189V64.523V154Z" fill="#68C9FF"/>
<path d="M161.25 98.5C161.25 125.983 139.193 148.25 112 148.25C84.807 148.25 62.75 125.983 62.75 98.5C62.75 71.0168 84.807 48.75 112 48.75C139.193 48.75 161.25 71.0168 161.25 98.5Z" fill="#68C9FF" stroke="#2492D0" stroke-width="1.5"/>
<path d="M170.25 64C170.25 67.4039 167.277 70.25 163.5 70.25C159.723 70.25 156.75 67.4039 156.75 64C156.75 60.5961 159.723 57.75 163.5 57.75C167.277 57.75 170.25 60.5961 170.25 64Z" fill="#68C9FF" stroke="#2492D0" stroke-width="1.5"/>
<circle cx="111.5" cy="98.5" r="39.75" fill="#68C9FF" stroke="#2492D0" stroke-width="1.5"/>
<circle cx="112" cy="98" r="33" fill="#2492D0"/>
<path d="M135 73L108.624 48.5485L92.9406 73V52.0922L63 57.7621L88.6633 42.8786L66.9208 42.1699L85.8119 35.0825L63 20.9078L87.2376 24.8058C85.9307 22.4434 83.103 17.5058 82.2476 16.6553C81.3921 15.8049 89.0198 18.4272 92.9406 19.8447L84.7426 0L104.703 19.1359L108.624 2.48058L113.257 19.1359L131.436 4.6068L120.743 31.1845L135 36.8544L117.535 41.1068L135 73Z" fill="#FF70C3"/>
<path d="M129 66L108.485 46.9078L96.2871 66V49.6748L73 54.1019L92.9604 42.4806L76.0495 41.9272L90.7426 36.3932L73 25.3252L91.8515 28.3689C90.835 26.5243 88.6357 22.6689 87.9703 22.0049C87.305 21.3408 93.2376 23.3883 96.2871 24.4951L89.9109 9L105.436 23.9417L108.485 10.9369L112.089 23.9417L126.228 12.5971L117.911 33.3495L129 37.7767L115.416 41.0971L129 66Z" fill="#FFCA0E"/>
<path d="M121 56L107.812 43.9417L99.9703 56V45.6893L85 48.4854L97.8317 41.1456L86.9604 40.7961L96.4059 37.301L85 30.3107L97.1188 32.233C96.4653 31.068 95.0515 28.633 94.6238 28.2136C94.1961 27.7942 98.0099 29.0874 99.9703 29.7864L95.8713 20L105.851 29.4369L107.812 21.2233L110.129 29.4369L119.218 22.2718L113.871 35.3786L121 38.1748L112.267 40.2718L121 56Z" fill="white"/>
</svg>
