<svg width="403" height="412" viewBox="0 0 403 412" fill="none" xmlns="http://www.w3.org/2000/svg">
<path d="M68.1905 254.285C136 342.437 186.857 353.174 203.81 347.523L246.191 398.38H280.096L258.905 148.333C254.667 139.856 244.496 122.056 237.715 118.666C230.934 115.275 226.413 120.079 225 122.904V135.618L136 84.7612C127.524 72.0469 110.572 76.285 106.334 84.7612C102.943 91.5421 104.921 104.539 106.334 110.19L93.6193 101.714C86.5558 98.8881 70.7336 96.6278 63.9527 110.19C57.1717 123.752 66.7781 138.444 72.4289 144.095C68.1908 139.857 57.1717 133.923 47.0003 144.095C36.8288 154.266 39.9368 165.285 42.7622 169.523L72.4289 199.19L68.1908 203.428C55.4765 194.952 51.2381 194.952 42.7619 199.19C35.9809 202.58 37.1111 214.73 38.5238 220.38L68.1905 254.285Z" fill="#B69214"/>
<path d="M59.7142 0L25.8094 21.1905L76.6666 55.0952L59.7142 0Z" fill="#FFD131"/>
<path d="M0.380859 76.2857L8.85705 50.8571L42.7618 76.2857H0.380859Z" fill="#FFD131"/>
<path d="M106.333 50.8571L110.571 8.47619L136 16.9524L106.333 50.8571Z" fill="#FFD131"/>
<path d="M301.286 76.2857L280.095 42.381L309.762 33.9048L301.286 76.2857Z" fill="#FFD131"/>
<path d="M335.19 89L356.381 29.6667L394.524 50.8571L335.19 89Z" fill="#FFD131"/>
<path d="M394.524 101.714L356.381 118.667L394.524 131.381V101.714Z" fill="#FFD131"/>
<path d="M364.857 279.715L403 309.381C401.587 330.572 383.505 380.581 322.476 411.096H292.81L254.667 364.477C240.54 365.889 198.724 355.153 144.476 300.905L72.4287 228.858C69.6033 223.207 65.6477 210.21 72.4287 203.429C80.9048 194.953 93.6191 194.953 102.095 203.429C108.876 210.21 150.127 248.635 169.905 267L72.4286 169.524C68.1905 165.286 62.2573 154.267 72.4287 144.096C85.1429 131.381 97.8574 135.62 106.334 144.096C113.115 150.877 168.492 203.429 195.334 228.858L89.3812 127.143C87.9685 120.08 87.6859 104.258 97.8574 97.4766C108.029 90.6956 124.699 97.4766 131.762 101.715L138.737 108.689C136.412 100.714 134.305 83.067 144.476 76.2861C157.191 67.8099 165.667 72.048 195.334 97.4765C215.25 114.548 252.477 152.71 276.459 177.901C265.639 164.495 255.817 146.033 263.143 131.381C273.315 111.039 284.334 122.905 288.572 131.381L343.667 186.477C353.556 200.604 371.638 239.029 364.857 279.715Z" fill="#FFCD1E"/>
</svg>
