<svg width="34" height="40" viewBox="0 0 34 40" fill="none" xmlns="http://www.w3.org/2000/svg">
<path d="M4 40C2.9 40 1.958 39.608 1.174 38.824C0.390003 38.04 -0.00132994 37.0987 3.39559e-06 36V8H4V36H26V40H4ZM12 32C10.9 32 9.958 31.608 9.174 30.824C8.39 30.04 7.99867 29.0987 8 28V4C8 2.9 8.392 1.958 9.176 1.174C9.96 0.390003 10.9013 -0.00132994 12 3.39559e-06H30C31.1 3.39559e-06 32.042 0.392003 32.826 1.176C33.61 1.96 34.0013 2.90134 34 4V28C34 29.1 33.608 30.042 32.824 30.826C32.04 31.61 31.0987 32.0013 30 32H12Z" fill="black"/>
</svg>
