<svg width="275" height="276" viewBox="0 0 275 276" fill="none" xmlns="http://www.w3.org/2000/svg">
<circle cx="137.334" cy="137.73" r="137.334" fill="#48BDFF"/>
<path d="M53.0566 34.533L51.2592 33.3351L72.7038 17.0422L81.0898 15.6046H91.6322L95.4658 18.36L100.138 19.3184V17.0422L98.2212 16.2036V12.4898H92.7104V11.1721H93.7886L95.4658 8.53641H101.336L102.414 11.1721L107.685 10.573L109.722 13.3285L105.649 16.2036H109.722L113.556 15.6046V14.4067L116.311 13.8077V11.1721H114.514V8.53641L116.91 7.45813L118.348 10.573L121.223 9.49478L122.061 10.573L123.02 12.4898V15.6046L124.338 17.0422L128.89 16.2036V15.6046L130.927 14.4067V12.4898H133.922V8.53641H136.078L137.516 10.573L138.234 9.49478H143.026L143.865 12.4898H151.892L153.09 15.6046H157.163L159.199 17.0422H162.434L163.273 18.36L162.434 20.7561L159.199 19.3184H157.163V20.7561L160.757 21.475V23.6312V25.7877H155.126H153.09L150.933 23.6312L148.657 22.4333H141.948V20.7561H144.584L146.141 19.3184H147.579V17.0422H143.865V14.4067H143.026H139.432H135.359L134.76 16.2036L135.359 19.3184H131.885V20.7561H135.359L137.516 24.5898V26.6262H136.078V24.5898H134.76V25.7877H130.927V24.5898H127.452V21.475H124.338V22.4333H121.223L120.025 25.7877L115.233 28.0639V29.1419H112.837V31.5381L115.233 32.1371L116.311 35.0123H121.223L122.061 37.0488H124.338L125.536 38.9656H133.203V43.1587L133.922 43.9972L135.359 46.7526H138.234V38.9656L143.026 38.0073V33.9341L140.87 33.3351L140.271 25.7877H141.948L146.141 26.6262H149.855L151.892 28.0639L155.126 29.1419L156.684 31.5381H159.918H161.595V30.4598L162.434 29.1419V24.5898L163.273 26.6262L164.59 29.1419L166.627 30.4598V33.3351L169.742 34.533L170.82 37.0488H173.216L175.732 38.9656H178.607L180.045 41.122L183.279 41.6012L183.878 45.1952L183.279 50.107H187.472H189.03H189.868L191.426 52.1436L190.946 52.8624L192.863 53.3416L194.421 55.498L192.863 56.8158H190.946L189.03 55.498H187.472H183.878L181.003 53.3416V50.107L180.045 46.7526L178.607 48.6694H174.893L171.898 50.107L169.742 48.6694H168.065H163.273L164.59 51.0654L168.065 52.1436H168.664V54.1802L170.82 55.498V56.8158H172.617H175.732L176.57 56.3366L178.607 55.498L180.045 54.1802V56.8158L178.607 60.1702H176.57L175.732 61.6078H170.82V64.0038L166.627 63.0454V60.7692H164.59V62.2068L158.72 63.0454V68.676L151.892 69.5146L150.933 72.6294H148.657V74.5462L146.86 75.7442L148.657 78.3798L146.141 81.0154L143.026 84.4896H140.271L138.833 87.1252H135.359L133.203 90.0004L133.922 91.5578V93.4746H135.359V95.3914L136.797 97.0686L137.516 101.262L135.359 102.939H133.203V101.262H130.927V100.183L128.89 98.3864V96.1102L128.051 93.4746L127.452 92.7558L122.061 93.4746V91.5578H113.556V95.3914H107.685V93.4746H100.138L99.2994 96.1102L97.0232 95.3914L94.8668 97.0686V104.257H92.7104V107.731H91.6322V111.205L93.7886 113.122L94.8668 115.278L97.0232 116.476V117.674H99.2994L100.138 118.992H102.414V117.674L106.727 118.393V116.476H108.404V114.32L109.722 113.122V111.205L119.066 111.924L117.868 115.278V118.393L116.311 118.992L115.233 119.711V122.586L125.536 123.305L127.452 124.383L128.89 126.539V128.456L128.051 129.894V131.93V135.405L129.848 136.363L130.927 138.04L133.203 138.879L135.359 138.04L136.797 136.363H138.833L140.271 137.321L141.948 138.04V139.598L144.584 138.879L145.303 138.04L146.141 136.363V134.326H151.892L154.048 133.248L156.085 131.212H158.72L159.918 133.248L158.72 135.405L157.163 136.363V138.879H159.918V137.321L160.757 134.326V132.649H165.429L166.627 134.326L168.664 135.405L172.617 134.326L173.216 136.363L175.732 137.321L176.57 136.363L177.289 134.326H180.045L181.003 135.405H184.956L185.555 138.879L189.03 140.316L190.946 142.113L194.421 144.39L202.567 145.348L204.244 147.145L207.479 148.463L208.197 151.817L211.073 153.375L212.031 158.646H213.469L218.38 160.083L222.693 161.401L225.329 164.276H230.84L232.038 165.834L234.194 168.35L238.028 169.428L237.189 176.376L236.35 177.694L234.793 180.449L232.038 181.767L229.881 185.96L227.485 187.038L225.928 193.867H224.85V195.544L223.891 196.622L222.693 200.097L221.735 202.253L219.579 204.529L218.38 206.805H212.031L211.073 208.722L207.479 209.8L204.244 212.316L204.843 216.988H202.567L201.848 219.265L199.692 219.864L198.494 221.78L195.738 223.338L189.748 230.765H182.68V233.76L181.003 234.599L180.045 237.594H171.06V242.146H166.627L164.71 244.183L163.752 248.256H160.757V253.288H157.882L157.163 254.965L154.048 255.804H152.73L154.048 257.96L156.085 258.559V260.715L155.246 262.153L154.048 262.752H151.892L148.657 261.434V259.877L146.141 259.278L145.303 257.96V255.804H143.865V251.611H146.141V247.178L148.657 245.86L149.735 243.584L147.938 242.985L146.86 238.433L148.657 237.594V234.599L154.048 227.052V216.988H156.085V213.035H157.163V207.524H158.72V196.622H157.163L155.246 195.544L152.73 193.867L148.657 192.549V190.872H146.86L144.584 188.835V185.96H143.026L141.948 183.205L140.271 180.449L138.115 177.694L135.359 174.22L133.203 172.902V168.35C134.279 161.95 136.941 158.312 141.948 151.817V144.39L140.271 143.072L139.432 141.035L138.833 140.316L136.797 141.035L137.516 143.072H130.927V141.035H126.374L125.536 138.879H124.338H123.02L121.223 137.321L119.066 134.326L117.868 131.93H116.91L115.233 129.894H111.878H109.722L105.649 129.175L102.414 126.539L101.336 124.383L100.138 123.305L98.2212 122.586L97.0232 123.305V125.461H94.8668L91.6322 124.383L86.2412 122.586L78.4542 119.711L73.5424 116.476V109.288L65.1564 100.183L62.8802 96.1102L61.6822 95.3914V91.5578L60.2446 90.0004H57.3694L58.0882 91.5578L58.6872 93.4746L60.2446 96.1102L61.6822 98.3864V100.183L64.0782 104.257C67.215 108.25 67.0187 109.056 64.0782 108.569L61.6822 106.293L58.0882 101.262L56.2912 97.6676L54.1348 95.3914V93.4746L53.0566 90.0004L54.1348 85.6876H51.8586L50.421 84.4896L48.624 83.8906C46.6539 76.1249 47.0105 71.7698 48.624 64.0038L49.7022 61.6078L53.0566 56.8158L54.9734 54.1802V52.8624L53.0566 54.1802L50.421 52.1436V50.107L53.0566 48.6694L51.8586 46.7526L48.624 45.1952L49.7022 43.9972L51.8586 41.6012L53.0566 38.9656V34.533Z" fill="#3189BB"/>
</svg>
