<svg width="28" height="26" viewBox="0 0 28 26" fill="none" xmlns="http://www.w3.org/2000/svg">
<path fill-rule="evenodd" clip-rule="evenodd" d="M27.3878 16.3743C27.3238 17.5651 26.9719 18.7251 26.3321 19.8542C24.8816 22.4035 22.4851 24.0195 19.1427 24.7023C16.1199 25.3198 13.5038 24.9837 11.2947 23.6941C8.82414 22.253 7.27511 19.9965 6.64756 16.9245C5.98989 13.705 6.54411 10.9036 8.3102 8.52029C9.8366 6.46756 11.9884 5.15755 14.7655 4.59024C18.1324 3.90245 20.9511 4.47873 23.2216 6.31908C25.2156 7.93428 26.534 10.3147 27.1766 13.4605L27.2971 14.0503L13.0675 16.9571C13.3978 18.3233 14.0242 19.3219 14.9467 19.9527C15.8642 20.5589 16.9742 20.729 18.2767 20.4629C19.8742 20.1366 20.9451 19.1753 21.4895 17.5792L27.3878 16.3743ZM13.4426 13.077C13.5642 13.6723 13.1803 14.2535 12.585 14.3751C11.9897 14.4968 11.4086 14.1128 11.2869 13.5176C11.1653 12.9223 11.5492 12.3411 12.1445 12.2195C12.7398 12.0978 13.3209 12.4818 13.4426 13.077ZM22.7475 12.2983C23.3428 12.1767 23.7268 11.5955 23.6051 11.0002C23.4835 10.4049 22.9023 10.021 22.307 10.1426C21.7117 10.2643 21.3278 10.8455 21.4494 11.4407C21.5711 12.036 22.1523 12.42 22.7475 12.2983Z" fill="#F8F6F2"/>
<path fill-rule="evenodd" clip-rule="evenodd" d="M15.459 5.21402C15.4591 5.21442 15.4593 5.21481 14.6451 5.59367L15.4593 5.21481C15.6686 5.6645 15.4736 6.19868 15.0239 6.40792C14.5751 6.61676 14.0421 6.42298 13.832 5.97512C13.8318 5.97451 13.8315 5.9739 13.8312 5.9733L13.8314 5.97383L13.8319 5.97477L13.8322 5.97554C13.8322 5.9755 13.8322 5.97536 13.832 5.97512C13.8318 5.97469 13.8315 5.97394 13.831 5.97287C13.8292 5.96924 13.8256 5.96197 13.8203 5.95137C13.8096 5.93014 13.7918 5.8957 13.7669 5.85037C13.7171 5.75948 13.6395 5.62633 13.5345 5.46924C13.3221 5.15155 13.01 4.75471 12.6037 4.4099C12.1989 4.0664 11.7205 3.79095 11.1675 3.67645C10.6248 3.56408 9.95164 3.59407 9.12286 3.94947C8.50595 4.21402 7.98886 4.91048 7.59536 6.15005C7.21022 7.36331 7.0095 8.88832 6.86605 10.4867C6.81606 11.0437 6.77269 11.6168 6.7298 12.1836C6.65345 13.1925 6.57863 14.1813 6.4707 15.023C6.38514 15.6903 6.27278 16.3235 6.10525 16.857C5.94573 17.365 5.69514 17.9217 5.241 18.2862C4.04218 19.2484 2.65477 19.3879 1.61345 18.6567C0.612517 17.9537 0.21988 16.638 0.55517 15.3105C0.676635 14.8297 1.16494 14.5383 1.64583 14.6598C2.12672 14.7812 2.41809 15.2695 2.29662 15.7504C2.10566 16.5065 2.37222 16.9947 2.6457 17.1868C2.87879 17.3504 3.381 17.4759 4.11675 16.8854C4.14626 16.8617 4.26306 16.7282 4.3916 16.3189C4.51212 15.9351 4.60846 15.4238 4.68914 14.7946C4.79193 13.993 4.85972 13.0931 4.93273 12.1239C4.97618 11.5472 5.02147 10.9459 5.0771 10.3261C5.22174 8.71441 5.43449 7.02074 5.88341 5.6066C6.32397 4.21877 7.0615 2.87911 8.41497 2.29871C9.55659 1.80915 10.6032 1.72537 11.5317 1.91761C12.4499 2.10773 13.1942 2.55529 13.7659 3.04042C14.336 3.52425 14.7541 4.06167 15.0277 4.47107C15.1657 4.67753 15.2702 4.85614 15.3415 4.98612C15.3772 5.05123 15.4049 5.10449 15.4245 5.14337C15.4342 5.16282 15.442 5.17871 15.4479 5.19071C15.4508 5.19671 15.4532 5.20175 15.4551 5.20578L15.4576 5.21106L15.4585 5.21313L15.459 5.21402Z" fill="#F8F6F2"/>
<path fill-rule="evenodd" clip-rule="evenodd" d="M21.5255 2.49871C21.6076 2.00955 22.0707 1.67956 22.5598 1.76165C23.2779 1.88215 23.9115 2.37446 24.0606 3.11872C24.2195 3.91151 23.7629 4.61097 23.0554 4.97909L23.0542 4.97972C22.7017 5.16246 22.324 5.14986 22.0798 5.12259C21.809 5.09235 21.5217 5.02046 21.2504 4.94016C20.9104 4.83955 20.507 4.69712 20.1118 4.5576C19.8989 4.48242 19.6883 4.40808 19.4913 4.34157C18.8815 4.13567 18.3332 3.97863 17.885 3.9302C17.4094 3.8788 17.2702 3.97363 17.2469 3.99537C17.0551 4.17439 16.994 4.32271 16.9718 4.42665C16.9474 4.54085 16.9563 4.66921 16.9987 4.81211C17.0417 4.95693 17.1119 5.09102 17.177 5.19343C17.2085 5.24285 17.2358 5.28039 17.2532 5.30306C17.2618 5.31429 17.2677 5.32152 17.27 5.32437C17.2702 5.32459 17.2704 5.32477 17.2705 5.32493C17.5921 5.69783 17.5534 6.26099 17.1826 6.58639C16.8097 6.9135 16.2423 6.87644 15.9152 6.50361L16.5903 5.91132C15.9152 6.50361 15.9149 6.5033 15.9147 6.50298L15.9141 6.50231L15.9128 6.50087L15.91 6.49758L15.9029 6.48935C15.8976 6.48314 15.8912 6.47548 15.8837 6.46642C15.8688 6.44831 15.8497 6.42448 15.8273 6.39534C15.7829 6.33728 15.7247 6.25685 15.6614 6.15733C15.5371 5.96186 15.381 5.67417 15.2769 5.32343C15.1722 4.97077 15.113 4.52978 15.2154 4.05094C15.32 3.56184 15.5808 3.09344 16.0215 2.68215C16.6308 2.11359 17.4476 2.07633 18.078 2.14445C18.7358 2.21553 19.4434 2.42961 20.0659 2.63981C20.3227 2.72651 20.5597 2.81043 20.782 2.8891C21.1175 3.00787 21.4192 3.1147 21.7042 3.20111C21.5541 3.00941 21.482 2.75771 21.5255 2.49871ZM22.3596 3.34167C22.3597 3.34174 22.3579 3.34194 22.3541 3.34206C22.3577 3.34166 22.3596 3.3416 22.3596 3.34167ZM22.3232 3.31847C22.3232 3.31847 22.323 3.31865 22.3228 3.31901C22.323 3.31864 22.3232 3.31846 22.3232 3.31847Z" fill="#F8F6F2"/>
</svg>
