<svg width="123" height="184" viewBox="0 0 123 184" fill="none" xmlns="http://www.w3.org/2000/svg">
<path d="M60.1057 149.97C19.4212 151.429 5.6175 99.5151 3.80122 73.3759C-3.46386 38.3616 12.8808 20.4893 23.7788 20.4895C72.8177 -21.4552 130.938 24.136 118.226 73.3759C110.223 104.377 100.79 148.511 60.1057 149.97Z" fill="#FFE074"/>
<path d="M26.8968 30.9832C28.4926 36.6261 29.8128 44.3225 27.4478 47.9072L29.345 55.5755L25.5507 51.7414L21.7563 61.3268L17.9619 59.4097C16.6972 63.2439 13.0293 71.6791 8.47604 74.7464V90.0831L2.7845 80.4977C-1.64225 61.3268 -4.04535 21.8348 21.7563 17.2338C36.9338 3.81421 75.6363 -14.5898 109.027 19.1509C116.615 29.3753 128.378 58.2593 114.718 92C115.983 84.9707 115.098 68.6117 101.438 59.4097V67.0779C99.5408 63.2438 94.6081 54.8087 90.0549 51.7414V61.3268C66.4585 39.3168 37.6524 59.4224 26.8968 30.9832Z" fill="#48BDFF"/>
<path d="M24 68C26.9487 66 35.6769 62 47 62" stroke="black" stroke-width="6"/>
<path d="M94 68C90.9231 66 81.8154 62 70 62" stroke="black" stroke-width="6"/>
<path d="M20 88C23.6471 90.5352 34.9529 94.4648 51 89.9014" stroke="black" stroke-width="6"/>
<path d="M71 88C74.6471 90.5352 85.9529 94.4648 102 89.9014" stroke="black" stroke-width="6"/>
<path d="M38 126C49.6044 115.333 72.2857 115.333 86 126" stroke="black" stroke-width="6"/>
<path d="M40.3031 108.664C38.7912 104.591 32.1137 93.956 28.9639 89.9961C23.9242 82.0764 29.8361 79.8137 32.7435 83.2079C37.1045 88.2991 47.2326 99.613 45.9727 96.7845C43.4528 92.259 38.0351 81.1714 36.5232 73.0253C35.0113 64.8793 39.673 67.3684 42.1929 69.6312C55.8002 94.0692 56.6821 92.259 55.4222 88.2991L45.9727 61.1457C47.4846 55.715 51.6424 57.7516 53.5323 59.4486C56.0522 63.4085 62.2258 74.0436 66.7616 84.9049C71.2974 95.7662 67.3916 71.3283 64.8717 57.7517C69.4075 50.9633 73.0613 58.3173 74.3212 62.8429C78.857 89.9963 82.5108 92.259 83.7707 89.9961C85.2826 73.7041 93.2202 73.0253 97 74.7223C95.7401 87.7333 92.4642 115.113 89.4404 120.544C86.4166 125.974 89.4404 135.252 91.3303 139.212C82.2588 136.496 68.6515 142.606 62.9818 146C64.4937 141.927 59.832 135.252 57.3121 132.423C45.2168 118.847 42.193 113.755 40.3031 108.664Z" fill="#FFCA0E"/>
<path d="M67.7454 184C63.6013 181.394 63.7164 167.715 64.292 161.201C72.5804 148.173 93.0705 150.345 102.279 153.059L123 184H67.7454Z" fill="#9CCA62"/>
<path d="M92.1667 136.948C81.1667 130.582 61 141.721 61 143.313C62.4667 148.405 64.0556 159.226 64.6667 164C74.9333 152.543 95.8333 153.922 105 156.043C101.333 150.209 93.6333 138.221 92.1667 136.948Z" fill="#7DA250"/>
</svg>
