<svg width="102" height="109" viewBox="0 0 102 109" fill="none" xmlns="http://www.w3.org/2000/svg">
<circle cx="50.9998" cy="50.7791" r="50.7791" fill="#48BDFF"/>
<circle cx="29.988" cy="45.5261" r="11.3815" fill="#2574A0"/>
<circle cx="66.3213" cy="31.9558" r="17.0723" fill="#2574A0"/>
<circle cx="29.988" cy="45.526" r="10.506" fill="white"/>
<circle cx="66.3213" cy="31.9558" r="16.1968" fill="white"/>
<circle cx="29.5501" cy="47.7149" r="3.93976" fill="#151515"/>
<circle cx="63.2569" cy="28.8917" r="5.25301" fill="#151515"/>
<path d="M84.2688 49.9036C63.6069 65.3124 34.5111 67.9973 22.5459 67.4136C26.6316 77.19 40.4937 94.8168 63.2567 87.1124C86.0198 79.408 86.7494 59.0963 84.2688 49.9036Z" fill="#2574A0"/>
<path d="M84.269 50.7791C66.451 64.12 40.481 68.3308 24.7349 68.3308C26.3924 71.9996 29.8455 76.9468 30.9505 77.9196C63.7688 73.9173 80.8159 65.7738 84.269 62.1606C85.0977 55.0732 84.269 51.7796 84.269 50.7791Z" fill="#F8F6F2"/>
<path d="M35.2407 97.1808L34.3652 77.482C49.2488 75.731 54.5018 73.5423 63.6946 71.3535C65.7958 80.4587 65.5915 89.885 65.4456 92.8033C65.5915 96.889 61.5933 109 51.4375 109C41.2817 109 36.4081 99.9532 35.2407 97.1808Z" fill="#FF70C3"/>
</svg>
