<svg width="433" height="373" viewBox="0 0 433 373" fill="none" xmlns="http://www.w3.org/2000/svg">
<path d="M191.538 91.9105C191.538 135.006 158.008 169.906 116.689 169.906C75.3693 169.906 41.8389 135.006 41.8389 91.9105C41.8389 48.8152 75.3693 13.9148 116.689 13.9148C158.008 13.9148 191.538 48.8152 191.538 91.9105Z" stroke="#FFC90D"/>
<path d="M1 303.753C3.47832 204.052 5.50359 149.176 26.5131 79.9195L23.1116 70.3947C46.0555 27.3815 64.8133 9.84576 118.36 1L124.483 7.46329L316.681 5.42145C368.841 1.8388 384.825 24.2097 409.889 70.3947V83.3212C426.361 116.362 429.942 140.672 432 188.435V333.349C411.392 378.587 392.844 377.801 350.358 341.513C327.116 310.986 312.102 294.685 283.004 267.355H153.738L82.3018 355.12C47.2207 382.378 30.3024 378.215 5.42256 333.349L1 303.753Z" fill="#FF70C3" stroke="#FFC90D"/>
<circle cx="295.42" cy="84.5131" r="20.2406" fill="#FFC90D"/>
<circle cx="327.057" cy="52.5372" r="20.2406" fill="#48BDFF"/>
<circle cx="361.413" cy="87.2338" r="20.2406" fill="#FFC90D"/>
<circle cx="329.096" cy="119.21" r="20.2406" fill="#FFC90D"/>
<circle cx="220.92" cy="150.167" r="20.2406" fill="#FFC90D"/>
<circle cx="220.919" cy="150.165" r="14.2873" fill="#FFC90D"/>
<path d="M182 89C182 126.625 152.607 157 116.5 157C80.3933 157 51 126.625 51 89C51 51.3755 80.3933 21 116.5 21C152.607 21 182 51.3755 182 89Z" stroke="#FFC90D" stroke-width="4"/>
<path d="M394 89C394 126.625 364.607 157 328.5 157C292.393 157 263 126.625 263 89C263 51.3755 292.393 21 328.5 21C364.607 21 394 51.3755 394 89Z" stroke="#FFC90D" stroke-width="4"/>
<ellipse cx="159.888" cy="197.354" rx="31.9501" ry="33.2841" fill="#FFC90D"/>
<ellipse cx="281.954" cy="197.738" rx="31.9501" ry="33.2841" fill="#FFC90D"/>
<path d="M26.5009 79.5702C44.0135 134.749 58.1913 159.515 87.0611 170.406L114.615 214.288C133.509 247.316 142.333 269.496 196.597 229.596H245.922C282.356 255.103 302.092 263.822 328.924 211.227L355.117 170.406C392.021 152.937 409.609 139.841 410.225 83.6613" stroke="#FFC90D" stroke-width="3"/>
<path d="M136.124 37H96.8756V70.4286H66V106.51H96.8756V141H136.124V106.51H167V70.4286H136.124V37Z" fill="#F8F6F2" stroke="white" stroke-opacity="0.31" stroke-width="6"/>
<path d="M94 110L117 89M140 68L117 89M117 89L94 68L140 110" stroke="#FFC90D" stroke-width="4"/>
<path d="M377.713 141.14L398.079 152.635V158.901" stroke="#577531" stroke-width="0.25"/>
</svg>
