<svg width="179" height="180" viewBox="0 0 179 180" fill="none" xmlns="http://www.w3.org/2000/svg">
<path d="M60.1057 149.97C19.4212 151.429 5.6175 99.5151 3.80122 73.3759C-3.46386 38.3616 12.8808 20.4893 23.7788 20.4895C72.8177 -21.4552 130.938 24.136 118.226 73.3759C110.223 104.377 100.79 148.511 60.1057 149.97Z" fill="#FFE074"/>
<path d="M26.8968 30.9832C28.4926 36.6261 29.8128 44.3225 27.4478 47.9072L29.345 55.5755L25.5507 51.7414L21.7563 61.3268L17.9619 59.4097C16.6972 63.2439 13.0293 71.6791 8.47604 74.7464V90.0831L2.7845 80.4977C-1.64225 61.3268 -4.04535 21.8348 21.7563 17.2338C36.9338 3.81421 75.6363 -14.5898 109.027 19.1509C116.615 29.3753 128.378 58.2593 114.718 92C115.983 84.9707 115.098 68.6117 101.438 59.4097V67.0779C99.5408 63.2438 94.6081 54.8087 90.0549 51.7414V61.3268C66.4585 39.3168 37.6524 59.4224 26.8968 30.9832Z" fill="#48BDFF"/>
<path d="M18 68C20.9487 66 29.6769 62 41 62" stroke="black" stroke-width="6"/>
<path d="M100 68C96.9231 66 87.8154 62 76 62" stroke="black" stroke-width="6"/>
<path d="M18 88C21.6471 90.5352 32.9529 94.4648 49 89.9014" stroke="black" stroke-width="4"/>
<path d="M100 88C96.3529 90.5352 85.0471 94.4648 69 89.9014" stroke="black" stroke-width="4"/>
<path d="M37 114C48.6044 124.667 71.2857 124.667 85 114" stroke="black" stroke-width="4"/>
<path d="M166.077 106.895C167.546 102.956 174.032 92.6717 177.092 88.8424C181.988 81.1838 176.245 78.9956 173.421 82.2779C169.184 87.2013 159.345 98.1423 160.569 95.407C163.017 91.0307 168.28 80.3086 169.749 72.4311C171.218 64.5536 166.689 66.9606 164.241 69.1488C151.023 92.7812 150.166 91.0307 151.39 87.2013L160.569 60.9431C159.101 55.6915 155.062 57.6608 153.226 59.302C150.778 63.1313 144.781 73.4158 140.374 83.919C135.968 94.4222 139.762 70.79 142.21 57.6609C137.804 51.0964 134.255 58.208 133.031 62.5844C128.625 88.8426 125.075 91.0307 123.851 88.8424C122.383 73.0875 114.672 72.431 111 74.0722C112.224 86.6542 115.406 113.131 118.344 118.383C121.281 123.635 118.344 132.606 116.508 136.435C125.32 133.81 138.539 139.718 144.046 143C142.578 139.061 147.106 132.606 149.554 129.871C161.304 116.742 164.241 111.818 166.077 106.895Z" fill="#FFCA0E"/>
<path d="M138.382 180C142.385 177.473 142.274 164.209 141.718 157.892C133.71 145.259 113.915 147.365 105.018 149.997L85 180H138.382Z" fill="#9CCA62"/>
<path d="M115.542 133.948C126.292 127.582 146 138.721 146 140.313C144.567 145.405 143.014 156.226 142.417 161C132.383 149.543 111.958 150.922 103 153.043C106.583 147.209 114.108 135.221 115.542 133.948Z" fill="#7DA250"/>
</svg>
