<svg width="377" height="408" viewBox="0 0 377 408" fill="none" xmlns="http://www.w3.org/2000/svg">
<path d="M359.04 77.5933L362.605 50.4059L372.856 53.0801C373.599 57.537 375.085 66.6292 375.085 67.3423C375.085 68.0554 364.388 74.4734 359.04 77.5933Z" fill="#FFC90D"/>
<path d="M368.399 0.0422363L291.861 5.04392L284.163 98.9865C300.37 103.042 290.848 100.324 308.068 109.594C325.225 118.83 309.419 126.869 299.965 129.873L283.758 121.761L279.706 158.264H336.431C329.948 147.448 336.431 138.736 340.483 135.732L360.741 140.238V126.719H341.212C341.212 125.817 335.418 122.747 335.418 118.151C335.418 113.556 340.766 110.575 340.766 110.575L349.68 110.129C336.309 100.324 345.183 89.0656 349.234 86.0613H359.485L368.399 0.0422363Z" fill="#9CCA62"/>
<path d="M359.04 10.2932L297.979 15.6416L289.511 140.882L345.669 144.447L359.04 10.2932Z" fill="#86B052"/>
<path d="M292.971 226.219C266.195 216.194 261.797 210.699 244.186 193.507C247.855 182.462 247.935 176.267 244.186 165.213C242.227 148.742 241.476 139.734 244.186 126.379L264.687 101.968C270.294 98.2999 275.074 97.0222 284.017 98.9355C287.016 99.5772 290.483 100.578 294.607 101.968L310.122 110.29C316.572 117.469 320.114 121.496 300.148 129.153L281.309 119.167C275.838 122.138 273.474 124.505 274.106 133.591L281.309 152.454H333.947C331.886 143.411 331.284 138.532 341.151 133.591L357.773 135.534V127.332L341.151 126.379C334.139 120.096 333.285 116.571 341.151 110.29H349.462C340.072 100.754 339.613 95.4141 349.462 85.8796H359.158H368.855C376.326 95.4127 374.955 100.757 368.855 110.29C377.908 115.765 378.879 119.305 374.396 126.379L357.773 135.534C373.302 138.653 361.652 152.454 361.652 152.454C347.903 172.592 339.605 183.371 320.095 198.501C318.292 199.505 316.617 200.465 315.06 201.393C302.932 208.62 296.286 216.68 292.971 226.219Z" fill="#FFD131"/>
<path d="M334.225 152.221C335.647 153.169 349.159 155.777 355.559 154.355" stroke="#C8A11B"/>
<path d="M0 302.617C53.0416 297.286 82.7834 295.275 135.75 295.96C170.647 255.636 190.302 234.745 225.513 200.537C228.523 192.943 230.927 189.397 239.919 187.777C257.53 204.969 269.106 213.259 295.882 223.284C296.078 230.594 296.02 234.667 290.341 241.036C260.579 294.505 243.624 324.175 208.89 371.965C197.426 383.484 190.701 388.9 176.199 389.718C123.986 403.868 83.2451 406.814 0 407.471V302.617Z" fill="#48BDFF"/>
</svg>
