<svg width="162" height="281" viewBox="0 0 162 281" fill="none" xmlns="http://www.w3.org/2000/svg">
<path d="M63.0728 251.2H5.98193V275.464C29.9601 284.027 54.0335 279.032 63.0728 275.464V251.2Z" fill="#42BBFF"/>
<path d="M100.896 275.464V251.2H159.414V272.609C143.999 285.74 113.979 279.983 100.896 275.464Z" fill="#42BBFF"/>
<path d="M160.841 0H0.986328L10.2636 251.2C27.3909 261.476 50.2272 255.482 59.5045 251.2C57.3636 179.836 68.0681 31.4 88.7636 75.6455C105.32 111.042 106.129 210.285 104.464 255.482C127.871 264.045 148.471 259.05 155.845 255.482L160.841 0Z" fill="#3395CC"/>
<path d="M46.659 19.9817C48.9427 50.2399 17.8757 57.3287 3.84085 57.0908L2.41357 19.2681L46.659 19.9817Z" fill="#88D4FF"/>
<path d="M160.841 49.2408C125.445 61.2299 117.547 33.7787 118.023 18.5544H160.841V49.2408Z" fill="#88D4FF"/>
<path d="M161.555 19.9818H2.41383L1.7002 0.713623H161.555V19.9818Z" fill="#42BBFF"/>
<circle cx="81.6273" cy="7.84995" r="4.99545" fill="#F9F9F9"/>
<path d="M75.2046 63.2832V19.9819H90.9046C90.023 44.8845 90.5028 60.2621 85.5112 65.9773C82.6981 69.1983 77.9149 66.5912 75.2046 63.2832Z" fill="#2A82B4"/>
</svg>
