<svg width="339" height="197" viewBox="0 0 339 197" fill="none" xmlns="http://www.w3.org/2000/svg">
<path d="M56.1338 112.328C48.1914 106.654 32.0798 95.0813 31.1721 94.1736C30.0375 93.039 3.94119 74.885 0.537329 56.7311C-2.86654 38.5772 10.7489 27.2309 17.5567 24.9617C24.3644 22.6925 33.4414 21.5578 43.653 24.9617C51.8223 27.6848 58.4031 30.6348 60.6723 31.7694C62.5634 29.5002 69.2955 24.2809 81.0955 21.5578C92.8956 18.8347 137.448 6.80773 158.25 1.13462C161.654 0.756414 169.142 0 171.865 0C174.588 0 190.397 3.78207 197.962 5.67311C219.141 11.7244 264.223 24.9617 275.116 29.5002C275.494 29.5002 276.477 29.954 277.385 31.7694L300.077 23.8271C304.616 22.6924 315.508 21.3309 322.77 24.9617C330.031 28.5925 335.629 37.0643 337.52 40.8464C339.033 43.872 340.697 52.6464 335.251 63.5388C329.805 74.4312 315.584 86.9876 309.154 91.9043L283.058 111.193C283.436 112.328 281.924 115.278 272.847 118.001C272.775 118.051 272.704 118.101 272.632 118.151C271.919 118.798 271.199 120.999 272.847 125.943C256.962 145.61 219.519 186.305 196.827 191.751C168.461 198.559 148.038 198.559 124.211 183.809C100.384 169.059 66.3454 127.078 66.3454 124.808V120.27L56.1338 112.328Z" fill="white"/>
<path d="M70.8838 45.3848V32.9039L163.01 7.97568C165.84 7.21 168.819 7.18905 171.659 7.91487L269.443 32.9039V45.3848L171.659 20.3957C168.819 19.6699 165.84 19.6908 163.01 20.4565L70.8838 45.3848Z" fill="#DADADA"/>
<path d="M134.423 111.193C117.176 106.654 95.4673 107.033 86.7686 107.789C145.769 128.212 157.115 128.212 183.211 127.078C204.088 126.17 240.321 113.84 255.827 107.789C243.346 107.789 215.208 108.697 202.5 112.327C186.615 116.866 155.98 116.866 134.423 111.193Z" fill="#8C8C8C"/>
<path d="M166.192 68.0772C148.946 67.1695 115.891 75.2632 101.519 79.4235C112.487 78.667 139.869 77.6081 161.654 79.4235C183.438 81.2388 212.333 78.667 224.058 77.1542C220.654 74.885 187.75 69.2119 166.192 68.0772Z" fill="#8C8C8C"/>
<path d="M163.923 189.482C133.08 187.379 86.3905 146.744 68.6147 124.808C88.8588 144.475 137.062 183.809 167.924 183.809C197.265 183.809 241.886 150.306 262.959 131.079C264.004 130.075 265.03 129.117 266.039 128.212C265.079 129.125 264.05 130.083 262.959 131.079C241.278 151.916 211.55 192.729 163.923 189.482Z" fill="#8C8C8C"/>
<path d="M8.47992 37.4423C20.28 21.1037 48.1917 32.1474 60.6725 39.7115C62.4879 62.4039 56.8905 92.2823 53.8648 104.385C20.9608 80.5579 -6.27016 57.8655 8.47992 37.4423Z" fill="#8C8C8C"/>
<path d="M284.193 91.9041C277.839 79.1964 277.763 51.8142 278.52 39.7115C310.289 20.6499 325.796 31.0128 329.578 38.5769C344.101 63.0847 305.372 91.9041 284.193 103.25C285.101 96.8965 284.571 93.0387 284.193 91.9041Z" fill="#8C8C8C"/>
</svg>
