<svg width="55" height="10" viewBox="0 0 55 10" fill="none" xmlns="http://www.w3.org/2000/svg">
<path d="M4.1575 8.48045C3.50708 8.24373 2.98498 7.76809 2.68632 7.14422C2.38987 6.52035 2.35005 5.81684 2.5757 5.16199C2.58013 5.14872 2.58455 5.13323 2.59119 5.11996C2.59562 5.10669 2.60225 5.0912 2.60668 5.07793C2.85445 4.43193 3.33673 3.91868 3.96503 3.63329C4.59554 3.34569 5.29905 3.31693 5.95168 3.55365C6.24813 3.66205 6.51139 3.81691 6.74147 4.00939C6.89412 4.1377 7.1065 3.94302 6.99146 3.77931C6.59988 3.22844 6.03796 2.78819 5.34993 2.54926C3.62655 1.95415 1.73061 2.85677 1.10231 4.5691C0.462957 6.31018 1.36336 8.24594 3.10666 8.88088C3.77035 9.12202 4.4628 9.14193 5.09994 8.97379C5.29241 8.92291 5.2548 8.63752 5.0557 8.63752C4.75703 8.63752 4.45395 8.58664 4.15971 8.47824" fill="#151515"/>
<path d="M7.26789 4.98551C6.99135 4.39482 6.50243 3.94572 5.88963 3.72228C5.42283 3.55194 5.00028 3.5453 4.65295 3.60503C4.46932 3.636 4.46269 3.89927 4.6441 3.93909C4.7348 3.959 4.82551 3.98555 4.914 4.02094C5.33434 4.18465 5.68167 4.4988 5.8852 4.90365C6.11749 5.36824 6.14404 5.89476 5.96042 6.37926C5.79449 6.81508 5.46265 7.17348 5.04231 7.37701C4.59543 7.5916 4.09102 7.61594 3.62644 7.44559C3.54901 7.41683 3.476 7.38586 3.40521 7.34825C3.23928 7.26197 3.07557 7.46771 3.19504 7.6093C3.42291 7.87699 3.75032 8.14246 4.21712 8.31281C4.82993 8.53625 5.49362 8.50749 6.08431 8.23096C6.67499 7.95442 7.12409 7.4655 7.34753 6.85269C7.56876 6.24431 7.54 5.57177 7.26567 4.98551" fill="#151515"/>
<path d="M8.59724 4.84413C8.12602 4.84413 7.7455 5.22465 7.7455 5.69587C7.7455 6.16709 8.12602 6.54761 8.59724 6.54761C9.06846 6.54761 9.44897 6.16709 9.44897 5.69587C9.44897 5.22465 9.06846 4.84413 8.59724 4.84413Z" fill="#151515"/>
<path d="M1.36824 0.441056C0.649237 0.441056 0.0673997 1.02289 0.0673996 1.74189C0.0673996 2.46089 0.649236 3.04272 1.36824 3.04272C2.08723 3.04272 2.66907 2.46089 2.66907 1.74189C2.66907 1.02289 2.08723 0.441056 1.36824 0.441056Z" fill="#151515"/>
<path d="M12.6212 2.18523V6.39313H15.0551V7.26593H11.5781V2.18523H12.6212Z" fill="#151515"/>
<path d="M18.6535 5.64096H16.1273C16.1415 5.94372 16.1888 6.15896 16.2693 6.28669C16.4064 6.49483 16.6217 6.59891 16.915 6.59891C17.2793 6.59891 17.5229 6.44753 17.6459 6.14477H18.6109C18.5021 6.51376 18.2892 6.80706 17.9723 7.02466C17.6601 7.23754 17.2934 7.34398 16.8724 7.34398C16.3 7.34398 15.8601 7.15239 15.5526 6.76921C15.2829 6.43334 15.1481 5.99102 15.1481 5.44227C15.1481 4.77525 15.3231 4.25961 15.6732 3.89535C15.9807 3.58313 16.3852 3.42702 16.8866 3.42702C17.2698 3.42702 17.6057 3.52164 17.8942 3.71086C18.1828 3.90009 18.3886 4.165 18.5116 4.50561C18.6109 4.77052 18.6606 5.08984 18.6606 5.46356C18.6606 5.51086 18.6582 5.57 18.6535 5.64096ZM17.6388 4.99523C17.5915 4.44647 17.3384 4.1721 16.8795 4.1721C16.449 4.1721 16.203 4.44647 16.1415 4.99523H17.6388Z" fill="#151515"/>
<path d="M20.8078 3.50508V4.15081H20.1479V6.24411C20.1479 6.3813 20.1715 6.47591 20.2188 6.52795C20.2709 6.57999 20.3631 6.606 20.4956 6.606C20.6044 6.606 20.7439 6.56343 20.9142 6.47828C20.9284 6.46882 20.9402 6.46172 20.9497 6.45699L21.0632 7.12401C20.7652 7.27066 20.453 7.34398 20.1266 7.34398C19.4879 7.34398 19.1686 7.05068 19.1686 6.46409V4.15081H18.6861V3.50508H19.1686V2.88064L20.1479 2.32006V3.50508H20.8078Z" fill="#151515"/>
<path d="M24.611 4.61204H23.6176C23.6129 4.46066 23.5585 4.35423 23.4544 4.29273C23.3503 4.2265 23.1706 4.19338 22.9151 4.19338C22.5414 4.19338 22.3545 4.30219 22.3545 4.5198C22.3545 4.64752 22.4681 4.74214 22.6951 4.80364L23.9298 5.15134C24.4218 5.28852 24.6678 5.60075 24.6678 6.088C24.6678 6.47118 24.5188 6.78104 24.2208 7.01757C23.9417 7.23518 23.5396 7.34398 23.0145 7.34398C22.3711 7.34398 21.9099 7.24937 21.6307 7.06014C21.3564 6.88038 21.2097 6.58945 21.1908 6.18734H22.1629C22.1913 6.34345 22.2576 6.44753 22.3616 6.49956C22.4704 6.5516 22.6691 6.57762 22.9577 6.57762C23.4449 6.57762 23.6886 6.46172 23.6886 6.22992C23.6886 6.09273 23.5798 5.99102 23.3622 5.92479L22.1984 5.57C21.9004 5.48011 21.697 5.37604 21.5882 5.25778C21.4462 5.11113 21.3753 4.91244 21.3753 4.66172C21.3753 4.25015 21.5314 3.9332 21.8436 3.71086C22.118 3.52164 22.4775 3.42702 22.9222 3.42702C23.4615 3.42702 23.8873 3.54765 24.1995 3.78892C24.4691 4.00179 24.6063 4.27617 24.611 4.61204Z" fill="#151515"/>
<path d="M29.0382 3.71796H28.0589C28.0258 3.20232 27.671 2.9445 26.9946 2.9445C26.7249 2.9445 26.5097 2.9989 26.3488 3.10771C26.1927 3.21651 26.1147 3.36316 26.1147 3.54765C26.1147 3.72742 26.1809 3.86224 26.3133 3.95212C26.4458 4.042 26.7013 4.12243 27.0797 4.19338L27.8744 4.3424C28.3428 4.43228 28.6834 4.58603 28.8963 4.80364C29.1091 5.02124 29.2156 5.32873 29.2156 5.72611C29.2156 6.27013 29.0074 6.68406 28.5911 6.9679C28.2316 7.21862 27.7467 7.34398 27.1365 7.34398C26.4411 7.34398 25.9112 7.18314 25.547 6.86146C25.23 6.58235 25.0574 6.19444 25.029 5.69772H26.0437C26.0815 6.23701 26.4624 6.50666 27.1861 6.50666C27.5078 6.50666 27.7585 6.44989 27.9383 6.33636C28.1228 6.21809 28.2151 6.05725 28.2151 5.85383C28.2151 5.65515 28.1417 5.5014 27.9951 5.3926C27.8532 5.28379 27.6072 5.19628 27.2571 5.13005L26.5475 4.99523C26.0319 4.90061 25.6629 4.7516 25.4405 4.54818C25.2229 4.34003 25.1141 4.042 25.1141 3.65409C25.1141 3.12899 25.3057 2.73162 25.6889 2.46197C26.02 2.22544 26.4695 2.10718 27.0371 2.10718C27.7231 2.10718 28.2387 2.26329 28.584 2.57551C28.8821 2.84989 29.0335 3.2307 29.0382 3.71796Z" fill="#151515"/>
<path d="M31.5024 3.50508V4.15081H30.8425V6.24411C30.8425 6.3813 30.8661 6.47591 30.9135 6.52795C30.9655 6.57999 31.0577 6.606 31.1902 6.606C31.299 6.606 31.4386 6.56343 31.6089 6.47828C31.623 6.46882 31.6349 6.46172 31.6443 6.45699L31.7579 7.12401C31.4598 7.27066 31.1476 7.34398 30.8212 7.34398C30.1826 7.34398 29.8633 7.05068 29.8633 6.46409V4.15081H29.3807V3.50508H29.8633V2.88064L30.8425 2.32006V3.50508H31.5024Z" fill="#151515"/>
<path d="M33.6239 3.42702C34.2436 3.42702 34.7191 3.62571 35.0502 4.02308C35.3388 4.36369 35.4831 4.81783 35.4831 5.3855C35.4831 6.03833 35.2962 6.53978 34.9225 6.88984C34.5961 7.1926 34.1632 7.34398 33.6239 7.34398C33.0042 7.34398 32.5288 7.14766 32.1976 6.75502C31.9091 6.40968 31.7648 5.95318 31.7648 5.3855C31.7648 4.73741 31.9517 4.23833 32.3254 3.88826C32.6518 3.58077 33.0846 3.42702 33.6239 3.42702ZM33.6239 4.21467C33.359 4.21467 33.1461 4.32348 32.9853 4.54109C32.8245 4.75396 32.744 5.03544 32.744 5.3855C32.744 5.76395 32.8339 6.06198 33.0137 6.27959C33.1745 6.46409 33.3779 6.55633 33.6239 6.55633C33.8889 6.55633 34.1017 6.44989 34.2626 6.23701C34.4281 6.01941 34.5109 5.73557 34.5109 5.3855C34.5109 5.01178 34.4187 4.71612 34.2342 4.49851C34.0733 4.30928 33.8699 4.21467 33.6239 4.21467Z" fill="#151515"/>
<path d="M36.8218 3.50508V4.04437C37.0488 3.63281 37.3965 3.42702 37.8649 3.42702C38.0872 3.42702 38.3048 3.48143 38.5177 3.59023C38.7353 3.69903 38.908 3.84095 39.0357 4.01599C39.3053 4.38971 39.4402 4.85567 39.4402 5.41389C39.4402 6.01468 39.2722 6.49956 38.9364 6.86855C38.6478 7.18551 38.2906 7.34398 37.8649 7.34398C37.4013 7.34398 37.0536 7.16658 36.8218 6.81179V8.78446H35.8425V3.50508H36.8218ZM37.6378 4.24306C37.3918 4.24306 37.1931 4.3495 37.0417 4.56237C36.8904 4.77052 36.8147 5.04726 36.8147 5.3926C36.8147 5.7332 36.8904 6.00758 37.0417 6.21573C37.1931 6.42388 37.3918 6.52795 37.6378 6.52795C37.8838 6.52795 38.0825 6.42388 38.2339 6.21573C38.3852 6.00758 38.4609 5.7332 38.4609 5.3926C38.4609 5.04726 38.3852 4.77052 38.2339 4.56237C38.0825 4.3495 37.8838 4.24306 37.6378 4.24306Z" fill="#151515"/>
<path d="M42.7576 6.24411H40.8559L40.5153 7.26593H39.4509L41.2533 2.18523H42.4099L44.1697 7.26593H43.0911L42.7576 6.24411ZM42.4738 5.37131L41.8139 3.38445L41.1469 5.37131H42.4738Z" fill="#151515"/>
<path d="M45.5533 2.18523V7.26593H44.5102V2.18523H45.5533Z" fill="#151515"/>
<path d="M46.0993 7.26593V2.18523H48.0862C48.8289 2.18523 49.3634 2.38155 49.6899 2.7742C50.1014 3.26618 50.3072 3.91664 50.3072 4.72558C50.3072 5.53925 50.1014 6.18971 49.6899 6.67696C49.3587 7.06961 48.8242 7.26593 48.0862 7.26593H46.0993ZM47.1424 6.39313H48.0862C48.8715 6.39313 49.2641 5.83728 49.2641 4.72558C49.2641 3.61388 48.8715 3.05803 48.0862 3.05803H47.1424V6.39313Z" fill="#151515"/>
<path d="M54.5789 3.71796H53.5996C53.5665 3.20232 53.2117 2.9445 52.5352 2.9445C52.2656 2.9445 52.0503 2.9989 51.8895 3.10771C51.7334 3.21651 51.6553 3.36316 51.6553 3.54765C51.6553 3.72742 51.7216 3.86224 51.854 3.95212C51.9865 4.042 52.2419 4.12243 52.6204 4.19338L53.4151 4.3424C53.8834 4.43228 54.2241 4.58603 54.4369 4.80364C54.6498 5.02124 54.7563 5.32873 54.7563 5.72611C54.7563 6.27013 54.5481 6.68406 54.1318 6.9679C53.7723 7.21862 53.2874 7.34398 52.6771 7.34398C51.9817 7.34398 51.4519 7.18314 51.0877 6.86146C50.7707 6.58235 50.598 6.19444 50.5696 5.69772H51.5844C51.6222 6.23701 52.003 6.50666 52.7268 6.50666C53.0485 6.50666 53.2992 6.44989 53.479 6.33636C53.6635 6.21809 53.7557 6.05725 53.7557 5.85383C53.7557 5.65515 53.6824 5.5014 53.5358 5.3926C53.3938 5.28379 53.1478 5.19628 52.7978 5.13005L52.0882 4.99523C51.5725 4.90061 51.2036 4.7516 50.9812 4.54818C50.7636 4.34003 50.6548 4.042 50.6548 3.65409C50.6548 3.12899 50.8464 2.73162 51.2296 2.46197C51.5607 2.22544 52.0101 2.10718 52.5778 2.10718C53.2637 2.10718 53.7794 2.26329 54.1247 2.57551C54.4227 2.84989 54.5741 3.2307 54.5789 3.71796Z" fill="#151515"/>
</svg>
