<svg width="150" height="25" viewBox="0 0 150 25" fill="none" xmlns="http://www.w3.org/2000/svg">
<path d="M11.2193 22.9288C9.43538 22.2795 8.00337 20.9749 7.18421 19.2638C6.37112 17.5527 6.2619 15.6231 6.88082 13.827C6.89296 13.7906 6.9051 13.7481 6.9233 13.7117C6.93544 13.6753 6.95363 13.6328 6.96577 13.5964C7.64537 11.8246 8.96816 10.4169 10.6914 9.63414C12.4208 8.84532 14.3503 8.76644 16.1403 9.4157C16.9534 9.71302 17.6755 10.1378 18.3066 10.6657C18.7252 11.0176 19.3078 10.4836 18.9922 10.0346C17.9182 8.52373 16.377 7.31623 14.4899 6.6609C9.76305 5.02865 4.56291 7.50433 2.83965 12.2008C1.08604 16.9762 3.55565 22.2856 8.33711 24.0271C10.1575 24.6885 12.0567 24.7431 13.8042 24.2819C14.3321 24.1423 14.229 23.3596 13.6829 23.3596C12.8637 23.3596 12.0324 23.22 11.2254 22.9227" fill="#EA0029"/>
<path d="M19.7511 13.3416C18.9926 11.7215 17.6516 10.4897 15.9708 9.87686C14.6905 9.40964 13.5315 9.39144 12.5789 9.55527C12.0752 9.64022 12.057 10.3623 12.5546 10.4715C12.8034 10.5261 13.0522 10.5989 13.2949 10.696C14.4478 11.145 15.4004 12.0067 15.9587 13.1171C16.5958 14.3913 16.6686 15.8355 16.165 17.1643C15.7099 18.3597 14.7997 19.3427 13.6468 19.9009C12.4211 20.4895 11.0376 20.5563 9.7634 20.089C9.55102 20.0102 9.35078 19.9252 9.15661 19.8221C8.70153 19.5854 8.25251 20.1497 8.58017 20.5381C9.20516 21.2723 10.1032 22.0004 11.3835 22.4676C13.0643 23.0805 14.8847 23.0016 16.5048 22.2431C18.1249 21.4846 19.3567 20.1436 19.9695 18.4629C20.5763 16.7942 20.4974 14.9496 19.745 13.3416" fill="#FFCA0E"/>
<path d="M23.3972 12.9529C22.1047 12.9529 21.061 13.9965 21.061 15.289C21.061 16.5814 22.1047 17.6251 23.3972 17.6251C24.6896 17.6251 25.7333 16.5814 25.7333 15.289C25.7333 13.9965 24.6896 12.9529 23.3972 12.9529Z" fill="#FFCA0E"/>
<path d="M3.56749 0.878016C1.59545 0.878016 -0.000399105 2.47386 -0.000399278 4.44591C-0.00039945 6.41795 1.59545 8.01379 3.56749 8.01379C5.53954 8.01379 7.13538 6.41795 7.13538 4.44591C7.13538 2.47386 5.53954 0.878016 3.56749 0.878016Z" fill="#EA0029"/>
<path d="M34.4334 5.66129V17.2026H41.109V19.5965H31.5724V5.66129H34.4334Z" fill="#151515"/>
<path d="M50.9785 15.1395H44.0498C44.0888 15.9699 44.2185 16.5603 44.4391 16.9106C44.8154 17.4815 45.4057 17.767 46.2102 17.767C47.2093 17.767 47.8775 17.3518 48.2148 16.5214H50.8617C50.5633 17.5334 49.9794 18.3379 49.1101 18.9347C48.2538 19.5186 47.2482 19.8106 46.0934 19.8106C44.5234 19.8106 43.3168 19.2851 42.4734 18.2341C41.7338 17.3129 41.364 16.0997 41.364 14.5946C41.364 12.7651 41.8441 11.3508 42.8042 10.3518C43.6476 9.49541 44.757 9.06724 46.1323 9.06724C47.1833 9.06724 48.1045 9.32674 48.896 9.84574C49.6875 10.3647 50.2519 11.0913 50.5893 12.0255C50.8617 12.7521 50.998 13.628 50.998 14.653C50.998 14.7827 50.9915 14.9449 50.9785 15.1395ZM48.1954 13.3685C48.0656 11.8634 47.3715 11.1108 46.1129 11.1108C44.9321 11.1108 44.2574 11.8634 44.0888 13.3685H48.1954Z" fill="#151515"/>
<path d="M56.8872 9.28132V11.0524H55.0772V16.7939C55.0772 17.1701 55.1421 17.4296 55.2718 17.5724C55.4145 17.7151 55.6676 17.7864 56.0309 17.7864C56.3293 17.7864 56.712 17.6697 57.1791 17.4361C57.2181 17.4102 57.2505 17.3907 57.2765 17.3777L57.5879 19.2072C56.7704 19.6094 55.9141 19.8106 55.0188 19.8106C53.2672 19.8106 52.3914 19.0061 52.3914 17.3972V11.0524H51.0679V9.28132H52.3914V7.56862L55.0772 6.03108V9.28132H56.8872Z" fill="#151515"/>
<path d="M67.3187 12.3175H64.5939C64.5809 11.9023 64.4317 11.6103 64.1463 11.4417C63.8608 11.26 63.3678 11.1692 62.6671 11.1692C61.6421 11.1692 61.1296 11.4676 61.1296 12.0645C61.1296 12.4148 61.441 12.6743 62.0638 12.843L65.4503 13.7966C66.7997 14.1729 67.4744 15.0293 67.4744 16.3657C67.4744 17.4167 67.0657 18.2665 66.2482 18.9153C65.4827 19.5121 64.3798 19.8106 62.9396 19.8106C61.175 19.8106 59.9099 19.5511 59.1444 19.0321C58.3919 18.539 57.9896 17.741 57.9377 16.6382H60.6041C60.6819 17.0663 60.8636 17.3518 61.149 17.4945C61.4475 17.6372 61.9924 17.7086 62.7839 17.7086C64.1203 17.7086 64.7885 17.3907 64.7885 16.7549C64.7885 16.3787 64.4901 16.0997 63.8933 15.918L60.7014 14.9449C59.884 14.6984 59.3261 14.4129 59.0276 14.0886C58.6384 13.6863 58.4438 13.1414 58.4438 12.4537C58.4438 11.3249 58.8719 10.4556 59.7283 9.84574C60.4808 9.32674 61.4669 9.06724 62.6866 9.06724C64.1657 9.06724 65.3335 9.3981 66.1898 10.0598C66.9294 10.6437 67.3057 11.3963 67.3187 12.3175Z" fill="#151515"/>
<path d="M79.4613 9.8652H76.7755C76.6847 8.45092 75.7115 7.74378 73.8561 7.74378C73.1165 7.74378 72.5262 7.893 72.085 8.19142C71.6568 8.48985 71.4427 8.89207 71.4427 9.3981C71.4427 9.89115 71.6244 10.2609 71.9877 10.5075C72.351 10.754 73.0517 10.9746 74.0897 11.1692L76.2695 11.5779C77.554 11.8244 78.4882 12.2461 79.0721 12.843C79.6559 13.4398 79.9479 14.2832 79.9479 15.3731C79.9479 16.8652 79.377 18.0005 78.2352 18.779C77.2491 19.4667 75.9191 19.8106 74.2454 19.8106C72.338 19.8106 70.8848 19.3694 69.8857 18.4871C69.0164 17.7216 68.5428 16.6576 68.465 15.2952H71.2481C71.3519 16.7744 72.3964 17.514 74.3816 17.514C75.2639 17.514 75.9516 17.3583 76.4446 17.0469C76.9506 16.7225 77.2037 16.2813 77.2037 15.7234C77.2037 15.1785 77.0025 14.7568 76.6003 14.4584C76.2111 14.1599 75.5364 13.9199 74.5762 13.7382L72.63 13.3685C71.2157 13.109 70.2036 12.7002 69.5938 12.1423C68.997 11.5714 68.6985 10.754 68.6985 9.69004C68.6985 8.24981 69.224 7.15991 70.275 6.42033C71.1832 5.77158 72.4159 5.4472 73.9729 5.4472C75.8543 5.4472 77.2685 5.87538 78.2157 6.73173C79.0331 7.48428 79.4483 8.52877 79.4613 9.8652Z" fill="#151515"/>
<path d="M86.2201 9.28132V11.0524H84.4101V16.7939C84.4101 17.1701 84.475 17.4296 84.6047 17.5724C84.7475 17.7151 85.0005 17.7864 85.3638 17.7864C85.6622 17.7864 86.045 17.6697 86.5121 17.4361C86.551 17.4102 86.5834 17.3907 86.6094 17.3777L86.9208 19.2072C86.1034 19.6094 85.247 19.8106 84.3517 19.8106C82.6001 19.8106 81.7243 19.0061 81.7243 17.3972V11.0524H80.4008V9.28132H81.7243V7.56862L84.4101 6.03108V9.28132H86.2201Z" fill="#151515"/>
<path d="M92.039 9.06724C93.7387 9.06724 95.0427 9.61219 95.9509 10.7021C96.7424 11.6363 97.1382 12.8819 97.1382 14.4389C97.1382 16.2294 96.6256 17.6048 95.6006 18.565C94.7053 19.3954 93.5181 19.8106 92.039 19.8106C90.3392 19.8106 89.0352 19.2721 88.127 18.1952C87.3355 17.248 86.9398 15.9959 86.9398 14.4389C86.9398 12.6613 87.4523 11.2925 88.4773 10.3323C89.3726 9.48892 90.5598 9.06724 92.039 9.06724ZM92.039 11.2276C91.3124 11.2276 90.7285 11.526 90.2873 12.1229C89.8462 12.7067 89.6256 13.4787 89.6256 14.4389C89.6256 15.4769 89.8721 16.2943 90.3652 16.8912C90.8063 17.3972 91.3643 17.6502 92.039 17.6502C92.7656 17.6502 93.3494 17.3583 93.7906 16.7744C94.2447 16.1775 94.4718 15.399 94.4718 14.4389C94.4718 13.4139 94.2188 12.6029 93.7127 12.0061C93.2716 11.4871 92.7137 11.2276 92.039 11.2276Z" fill="#151515"/>
<path d="M100.81 9.28132V10.7605C101.433 9.63165 102.386 9.06724 103.671 9.06724C104.281 9.06724 104.878 9.21645 105.461 9.51487C106.058 9.8133 106.532 10.2026 106.882 10.6826C107.622 11.7077 107.992 12.9857 107.992 14.5167C107.992 16.1646 107.531 17.4945 106.61 18.5066C105.818 19.3759 104.839 19.8106 103.671 19.8106C102.399 19.8106 101.446 19.324 100.81 18.3509V23.7614H98.124V9.28132H100.81ZM103.048 11.3054C102.373 11.3054 101.828 11.5974 101.413 12.1812C100.998 12.7521 100.79 13.5112 100.79 14.4584C100.79 15.3926 100.998 16.1451 101.413 16.716C101.828 17.2869 102.373 17.5724 103.048 17.5724C103.723 17.5724 104.268 17.2869 104.683 16.716C105.098 16.1451 105.306 15.3926 105.306 14.4584C105.306 13.5112 105.098 12.7521 104.683 12.1812C104.268 11.5974 103.723 11.3054 103.048 11.3054Z" fill="#151515"/>
<path d="M117.091 16.7939H111.875L110.94 19.5965H108.021L112.965 5.66129H116.137L120.964 19.5965H118.005L117.091 16.7939ZM116.312 14.4L114.502 8.95046L112.673 14.4H116.312Z" fill="#EA0029"/>
<path d="M124.759 5.66129V19.5965H121.898V5.66129H124.759Z" fill="#EA0029"/>
<path d="M126.256 19.5965V5.66129H131.706C133.743 5.66129 135.209 6.19976 136.104 7.27668C137.233 8.62609 137.797 10.4102 137.797 12.6289C137.797 14.8606 137.233 16.6446 136.104 17.9811C135.196 19.058 133.73 19.5965 131.706 19.5965H126.256ZM129.117 17.2026H131.706C133.859 17.2026 134.936 15.678 134.936 12.6289C134.936 9.57975 133.859 8.05518 131.706 8.05518H129.117V17.2026Z" fill="#EA0029"/>
<path d="M149.513 9.8652H146.828C146.737 8.45092 145.764 7.74378 143.908 7.74378C143.169 7.74378 142.578 7.893 142.137 8.19142C141.709 8.48985 141.495 8.89207 141.495 9.3981C141.495 9.89115 141.677 10.2609 142.04 10.5075C142.403 10.754 143.104 10.9746 144.142 11.1692L146.322 11.5779C147.606 11.8244 148.54 12.2461 149.124 12.843C149.708 13.4398 150 14.2832 150 15.3731C150 16.8652 149.429 18.0005 148.287 18.779C147.301 19.4667 145.971 19.8106 144.298 19.8106C142.39 19.8106 140.937 19.3694 139.938 18.4871C139.069 17.7216 138.595 16.6576 138.517 15.2952H141.3C141.404 16.7744 142.449 17.514 144.434 17.514C145.316 17.514 146.004 17.3583 146.497 17.0469C147.003 16.7225 147.256 16.2813 147.256 15.7234C147.256 15.1785 147.055 14.7568 146.653 14.4584C146.263 14.1599 145.589 13.9199 144.628 13.7382L142.682 13.3685C141.268 13.109 140.256 12.7002 139.646 12.1423C139.049 11.5714 138.751 10.754 138.751 9.69004C138.751 8.24981 139.276 7.15991 140.327 6.42033C141.235 5.77158 142.468 5.4472 144.025 5.4472C145.906 5.4472 147.321 5.87538 148.268 6.73173C149.085 7.48428 149.501 8.52877 149.513 9.8652Z" fill="#EA0029"/>
</svg>
