<svg width="268" height="287" viewBox="0 0 268 287" fill="none" xmlns="http://www.w3.org/2000/svg">
<path d="M11.3963 207.735L2 53.5095L56.8613 33.5116L79.7453 25.3307L102.629 17.1498L145.669 2L266 64.4174L263.878 216.825L122.634 285L11.3963 207.735Z" fill="#FF70C3"/>
<path d="M2 53.5095L11.3963 207.735L122.634 285M2 53.5095L56.8613 33.5116L79.7453 25.3307L102.629 17.1498L145.669 2L266 64.4174M2 53.5095L118.087 124.108M122.634 285L118.087 124.108M122.634 285L263.878 216.825L266 64.4174M118.087 124.108L172.948 101.989M215 85.5L266 64.4174" stroke="#D75EA4" stroke-width="3"/>
<path d="M103 17L57 33.5L172.5 101.5V137L219.5 118.5V83.5L103 17Z" fill="#FFC90D"/>
<path d="M74.5 149.5C74.3333 136.667 74.1 110.2 74.5 107L111.5 128V173L74.5 149.5Z" fill="#FFC90D"/>
</svg>
