<svg width="263" height="249" viewBox="0 0 263 249" fill="none" xmlns="http://www.w3.org/2000/svg">
<path d="M80.4216 166.239L65.9457 159.843L60.4306 162.012L59.7425 165.442L56.9805 166.513L55.3122 166.543L54.4332 169.203L53.1362 169.226L50.2286 172.533L47.6665 174.41L45.9982 174.44L46.026 175.973L43.9869 176.01L44.0622 180.17L42.6639 184.873L40.0688 184.92L38.5858 184.947L38.6006 185.76L36.7874 188.03L36.8573 191.893L36.8867 193.52L32.8565 196.237L31.0469 198.71L31.1169 202.573L29.9113 207.68L29.9591 210.323L26.2738 211.61L23.6787 211.657L23.6971 212.673L22.6695 217.37L22.721 220.216L25.0043 223.429L25.0742 227.292L22.8903 229.569L21.492 234.272L21.5803 239.152L21.6539 243.218L19.4994 247.121L25.4091 245.794L28.6979 243.09L31.8491 243.033L35.0004 242.976L41.0954 241.646L45.122 238.726L45.0925 237.099L46.1864 236.062L47.0727 233.809L54.3027 233.678L59.307 233.588L59.2444 230.131L60.9127 230.101L64.6201 230.034L67.1232 224.904L69.9037 224.854L71.9428 224.817L73.2403 224.793L73.1704 220.93L74.387 216.434L77.5383 216.377L81.965 215.076L85.0133 209.326L86.5572 205.638L88.9515 201.526L92.4367 199.429L93.4716 195.14L97 188.03L88.9515 176.01L80.4216 166.239Z" fill="#FF70C3"/>
<path d="M84 89.5H47.5C28.3 104.7 7.83333 141.167 0 157.5H51.5L64.5 139H84C88 120.2 111.833 80.5 122.5 63L84 89.5Z" fill="#E1B61F"/>
<path d="M122 173.5C146 167.5 182.667 146.167 192 140.5C188.4 149.3 169.333 169.833 167 173.5V203.5C151 219.9 117.333 240.333 102.5 248.5V200L120.5 190.5L122 173.5Z" fill="#E1B61F"/>
<path d="M80.7191 138.238H81.9954C89.9436 112.57 97.6368 97.3981 114.76 69.5181L119.931 65.0501C146.777 37.7766 164.32 24.9662 200.925 7.18088C256.716 -7.28897 276.916 -4.49271 253.263 59.3059C235.296 98.3442 220.514 113.623 193.479 139.94L177.31 151.216C142.822 168.264 131.273 173.36 124.972 173.981H121.993L119.931 175.584L96.8883 193.507L58.8052 223.127L85.825 179.938L76.241 169.555L66.0388 159.088V157.173V151.216L75.6128 142.918L78.1659 144.195H81.9954L80.7191 138.238Z" fill="#FFD131"/>
<path d="M201 6C164.6 19.2 130.167 51.3333 118.5 65C130.1 88.2 172.333 127 192 142.5C228.4 112.9 250.167 73.3333 254.5 59C245 40 226 17 201 6Z" fill="#FFF5D1"/>
<path d="M213.62 34.2442C218.202 39.8949 219.187 47.6998 216.913 55.8579C214.639 64.0133 209.121 72.4317 200.859 79.1314C192.597 85.831 183.22 89.4904 174.771 90.0303C166.319 90.5704 158.886 87.9938 154.304 82.343C149.722 76.6923 148.736 68.8874 151.011 60.7293C153.285 52.5739 158.803 44.1555 167.065 37.4559C175.327 30.7562 184.704 27.0969 193.153 26.557C201.605 26.0169 209.038 28.5935 213.62 34.2442Z" stroke="#FF70C3" stroke-width="2"/>
<ellipse cx="183.914" cy="58.2186" rx="31.1122" ry="22.0955" transform="rotate(-39.0381 183.914 58.2186)" fill="#FF70C3"/>
<path d="M99.5 162L151.5 123.5L157 127L121 173L62 218L99.5 162Z" fill="#F8CD38"/>
<path d="M114.5 170L151 121.5L158 126L122 178.5L61 218.5L114.5 170Z" fill="#FFF5D1"/>
</svg>
