<svg width="229" height="270" viewBox="0 0 229 270" fill="none" xmlns="http://www.w3.org/2000/svg">
<path d="M19.2544 78.6318C16.9707 24.3955 26.8665 4.17576 32.0998 0.845459H65.6408C105.604 47.66 149.85 20.3515 166.977 0.845459L215.504 7.26819C219.501 34.1009 213.839 66.0242 210.509 78.6318L224.782 104.323H4.98169C19.2544 83.1991 20.4438 78.3939 19.2544 78.6318Z" fill="#81AE47"/>
<path d="M110.6 88.6227C75.755 86.6596 66.8303 29.6288 65.6409 0.131836H32.1C41.8054 60.0773 17.1136 97.9 3.5545 109.318C12.1181 185.82 5.21965 230.161 0.699951 242.768C101.18 290.725 194.333 262.75 228.35 242.768C215.79 200.521 223.117 130.965 228.35 101.468C225.971 100.041 216.165 93.2936 206.941 72.2091C196.95 49.3727 207.892 20.5894 215.504 7.2682L166.264 0.131836C162.933 27.7258 161.268 91.4773 110.6 88.6227Z" fill="#B4E874"/>
</svg>
