<svg width="252" height="276" viewBox="0 0 252 276" fill="none" xmlns="http://www.w3.org/2000/svg">
<path d="M0 113.064L2.14091 94.509L244.064 260.786C237.021 266.89 229.03 271.988 220.514 275.773H212.664C211.95 274.345 210.237 271.491 209.095 271.491C207.954 271.491 205.765 273.394 204.814 274.345L195.536 271.491L190.541 265.782L185.545 267.923C182.929 266.733 177.267 264.069 175.555 262.927C173.842 261.785 173.414 258.645 173.414 257.218L168.418 255.077H161.282L152.005 249.368L149.864 244.373L147.009 239.377H138.445L132.736 236.523L134.877 231.527L129.882 227.245H122.032L113.468 221.536V213.686L108.473 208.691L104.905 210.832L98.4818 203.695V199.414C96.5788 197.748 92.4873 194.275 91.3455 193.704C90.2036 193.134 85.6364 191.564 83.4955 190.85L77.7864 185.854V181.573L72.0773 177.291H65.6545L57.0909 170.154V164.445L54.95 160.877H47.8136L39.25 154.454V149.459L36.3955 144.464H28.5455L0 113.064Z" fill="#151515"/>
<path d="M2.1408 90.9409L10.7044 80.2363C91.1075 131.142 251.771 235.381 251.2 245.086C250.629 254.792 245.729 260.548 243.35 262.214C207.383 282.766 152.242 244.611 129.168 222.964C24.1208 135.615 0.713529 98.553 2.1408 90.9409Z" fill="#B1B1B1"/>
<path d="M10.7046 78.809L17.1273 72.3862C155.287 221.964 228.839 255.077 248.346 252.936C221.227 282.195 164.136 246.514 130.596 207.977C103.763 177.148 39.4879 109.02 10.7046 78.809Z" fill="#D7D7D7"/>
<path d="M16.4136 71.6727C23.2645 49.4073 71.1257 14.8197 94.1999 0.309082C111.327 0.309082 111.327 14.5818 109.186 21.7182C108.044 53.6891 125.838 68.3424 134.877 71.6727C138.874 55.1164 156.524 50.0257 164.85 49.55C174.555 60.9682 175.554 87.6106 174.841 99.5045L186.973 110.923L188.4 123.055L196.964 131.618V138.755L202.673 143.036V149.459L206.954 153.027L208.824 163C209.251 163.496 211.4 168.388 217.659 184.427C229.077 213.686 241.209 206.55 247.632 225.105C252.77 239.948 249.773 249.844 247.632 252.936C218.373 283.623 158.427 237.236 133.45 204.409C113.468 178.147 47.0999 104.976 16.4136 71.6727Z" fill="#FF8ACE"/>
<circle cx="141.3" cy="86.659" r="3.56818" fill="#D9D9D9"/>
<circle cx="151.291" cy="86.659" r="3.56818" fill="#D9D9D9"/>
<path d="M161.282 108.068C171.558 102.93 181.264 106.879 184.832 109.496C186.735 114.729 190.113 124.196 188.4 120.2C186.687 116.204 168.656 115.68 159.855 115.918L161.282 108.068Z" fill="#FEFEFE"/>
<path d="M170.559 128.764C184.832 122.484 194.585 128.05 197.677 131.618L196.25 140.896C191.112 135.186 176.982 134.235 170.559 134.473V128.764Z" fill="#FEFEFE"/>
<path d="M180.55 147.318C195.965 143.322 204.1 149.935 206.241 153.741V162.305C206.241 165.73 204.338 172.771 203.386 175.864L196.25 173.009C199.818 170.155 199.818 158.736 199.105 156.458C192.962 153.786 185.008 153.423 180.55 153.741V147.318Z" fill="#FEFEFE"/>
<path d="M218.373 184.427C218.439 184.582 218.502 184.74 218.561 184.902C235.578 227.751 246.207 199.531 246.918 231.527C247.632 263.641 206.241 230.1 188.4 219.396C170.559 208.691 167.705 192.277 196.25 195.846C218.38 198.612 220.405 189.985 218.561 184.902C218.498 184.745 218.435 184.587 218.373 184.427Z" fill="#FEFEFE"/>
<path d="M147.723 115.918L100.623 123.055V134.473L153.432 128.764L147.723 115.918Z" fill="#FEFEFE"/>
<path d="M167.705 153.741L114.182 160.877L109.9 148.746L161.282 140.896L167.705 153.741Z" fill="#FEFEFE"/>
<path d="M92.0592 40.2727C86.3501 6.01819 96.341 0.784854 102.05 2.45001C112.326 1.30823 111.565 17.6742 109.9 26C111.613 51.12 127.265 67.3909 134.877 72.3863C122.983 75.9545 97.7683 74.5273 92.0592 40.2727Z" fill="#626262"/>
</svg>
