<svg width="466" height="387" viewBox="0 0 466 387" fill="none" xmlns="http://www.w3.org/2000/svg">
<path d="M49.5322 95.0643H4V207.556H44.1754V230.322H91.0468V278.532H141.936V328.082H194.164V278.532H285.228V328.082H337.456V278.532H387.006V230.322H435.216V207.556H462V104.439H428.52V195.503H387.006V128.544H360.222V104.439H337.456V78.9942H318.708V26.7661H279.871V74.9766H194.164V26.7661H163.363V78.9942H141.936V104.439H105.778V128.544H78.9942V195.503H49.5322V95.0643Z" fill="#48BDFF"/>
<path d="M91.0468 104.439H61.5848V56.2281H117.83V85.6901H91.0468V104.439Z" fill="#48BDFF"/>
<path d="M91.0468 32.1228V4H117.83V32.1228H91.0468Z" fill="#48BDFF"/>
<path d="M360.222 32.1228V4H389.684V32.1228H360.222Z" fill="#48BDFF"/>
<path d="M412.45 56.2281H360.222V85.6901H387.006V104.439H412.45V56.2281Z" fill="#48BDFF"/>
<path d="M117.83 356.205H91.0468V382.988H117.83V356.205Z" fill="#48BDFF"/>
<path d="M387.006 356.205H360.222V382.988H387.006V356.205Z" fill="#48BDFF"/>
<path d="M49.5322 95.0643H4V207.556H44.1754V230.322H91.0468V278.532H141.936V328.082H194.164V278.532H285.228V328.082H337.456V278.532H387.006V230.322H435.216V207.556H462V104.439H428.52V195.503H387.006V128.544H360.222V104.439H337.456V78.9942H318.708V26.7661H279.871V74.9766H194.164V26.7661H163.363V78.9942H141.936V104.439H105.778V128.544H78.9942V195.503H49.5322V95.0643Z" stroke="#151515" stroke-width="8"/>
<path d="M91.0468 104.439H61.5848V56.2281H117.83V85.6901H91.0468V104.439Z" stroke="#151515" stroke-width="8"/>
<path d="M91.0468 32.1228V4H117.83V32.1228H91.0468Z" stroke="#151515" stroke-width="8"/>
<path d="M360.222 32.1228V4H389.684V32.1228H360.222Z" stroke="#151515" stroke-width="8"/>
<path d="M412.45 56.2281H360.222V85.6901H387.006V104.439H412.45V56.2281Z" stroke="#151515" stroke-width="8"/>
<path d="M117.83 356.205H91.0468V382.988H117.83V356.205Z" stroke="#151515" stroke-width="8"/>
<path d="M387.006 356.205H360.222V382.988H387.006V356.205Z" stroke="#151515" stroke-width="8"/>
<rect x="163.345" y="145.936" width="34.8538" height="58.9591" fill="white" stroke="#151515" stroke-width="8"/>
<rect x="273.158" y="145.936" width="34.8538" height="58.9591" fill="white" stroke="#151515" stroke-width="8"/>
</svg>
