<svg width="280" height="109" viewBox="0 0 280 109" fill="none" xmlns="http://www.w3.org/2000/svg">
<path d="M0.468262 35.9137V14.5046C51.8501 -10.0445 103.708 2.37275 123.214 11.65H163.177C203.712 -10.6154 257.615 4.2758 279.5 14.5046V35.9137L269.509 45.191C271.174 59.7016 263.086 92.1482 217.414 105.85C160.323 122.977 151.046 38.0546 149.618 35.9137C148.191 33.7728 137.486 32.3455 131.064 35.9137C125.926 38.7682 123.689 58.0364 123.214 67.3137C105.373 105.85 81.1092 108.705 57.5592 105.85C34.0092 102.995 17.5955 83.7273 11.8864 57.3228C7.31917 36.1991 2.37129 34.2485 0.468262 35.9137Z" fill="#151515"/>
<path d="M70.4047 13.7911C39.0047 10.3656 27.3486 27.588 25.4456 36.6274V50.9002C17.5956 91.5774 86.8183 119.409 106.8 76.5911C126.782 33.7729 109.655 18.0729 70.4047 13.7911Z" fill="#535353"/>
<path d="M212.418 13.7911C186.727 9.2238 170.79 25.2092 166.032 33.7729V50.9002C173.168 108.705 237.396 109.418 252.382 66.6C267.368 23.7818 244.532 19.5002 212.418 13.7911Z" fill="#535353"/>
</svg>
