<svg width="161" height="160" viewBox="0 0 161 160" fill="none" xmlns="http://www.w3.org/2000/svg">
<path d="M14.532 132.497L24.681 123.586L21.0562 116.12C19.9346 111.435 18.775 108.155 21.888 104.93C23.1494 103.623 25.1124 102.326 28.0638 100.947L32.8967 103.837L69.3184 68.1184L74.0691 63.4594L108.289 29.9004C111.404 29.3317 113.148 29.123 116.263 29.9004L128.828 24.3611H131.97H136.802V27.2511V29.9004L131.97 43.628L130.52 52.7799L95.265 87.0102L90.853 91.2941L55.6109 125.512C57.0443 129.198 57.4062 131.078 57.5441 134.182C54.1323 137.542 51.215 139.098 47.8715 139.005C44.6149 138.915 40.9539 137.26 36.038 134.182L24.681 145.502L28.0638 149.355C27.9262 152.396 27.4765 154.427 26.6801 155.752C25.2263 158.169 22.617 158.232 18.6398 157.784C11.0127 154.843 7.04045 151.78 3.48051 145.467C1.68035 142.275 0.927491 138.415 2.23079 134.99C2.64044 133.913 3.11707 133.099 3.65922 132.497C6.0503 129.839 9.71596 131.297 14.532 132.497Z" fill="#9CCA62"/>
<path d="M24.681 123.586L14.532 132.497M24.681 123.586C27.9527 129.176 30.2482 131.748 36.038 134.182M24.681 123.586L21.0562 116.12C19.9346 111.435 18.775 108.155 21.888 104.93C23.1494 103.623 25.1124 102.326 28.0638 100.947L32.8967 103.837M14.532 132.497L9.69909 137.072C11.6777 143.565 14.0992 146.004 21.0562 148.151L24.681 145.502M14.532 132.497C9.71596 131.297 6.0503 129.839 3.65922 132.497M24.681 145.502L28.0638 149.355C27.9262 152.396 27.4765 154.427 26.6801 155.752M24.681 145.502L36.038 134.182M36.038 134.182C40.9539 137.26 44.6149 138.915 47.8715 139.005C51.215 139.098 54.1323 137.542 57.5441 134.182C57.4062 131.078 57.0443 129.198 55.6109 125.512M32.8967 103.837L32.1987 104.93M32.8967 103.837L69.3184 68.1184M108.289 29.9004C112.83 43.8647 117.091 49.6057 130.52 52.7799M108.289 29.9004C111.404 29.3317 113.148 29.123 116.263 29.9004M108.289 29.9004L74.0691 63.4594M130.52 52.7799L131.97 43.628M130.52 52.7799L95.265 87.0102M116.263 29.9004L128.828 24.3611M116.263 29.9004C120.599 42.8734 124.343 44.5769 131.97 43.628M128.828 24.3611H131.97H136.802M128.828 24.3611C131.37 29.3495 133.288 29.7154 136.802 29.9004M136.802 24.3611L160 1M136.802 24.3611V27.2511V29.9004M136.802 29.9004L131.97 43.628M55.6109 125.512L52.7112 128.161M55.6109 125.512L90.853 91.2941M3.65922 132.497C3.11707 133.099 2.64044 133.913 2.23079 134.99C0.927491 138.415 1.68035 142.275 3.48051 145.467C7.04045 151.78 11.0127 154.843 18.6398 157.784C22.617 158.232 25.2263 158.169 26.6801 155.752M3.65922 132.497C8.49165 147.757 13.9434 152.25 26.6801 155.752M52.7112 128.161L49.8115 130.811C36.3851 125.93 32.0414 121.088 29.5137 109.135L32.1987 104.93M52.7112 128.161C41.9486 123.501 36.0764 120.628 32.1987 104.93M90.853 91.2941C78.6181 85.951 73.3285 81.4338 69.3184 68.1184M90.853 91.2941L95.265 87.0102M69.3184 68.1184L74.0691 63.4594M95.265 87.0102C83.2106 80.2211 78.7303 75.0076 74.0691 63.4594" stroke="#9CCA62" stroke-width="2"/>
<path d="M95.2666 87.619C87.1768 84.9363 76.3955 74.4725 72.9177 63.7477L107 30.5354C108.348 43.9491 124.213 51.4792 130.392 53.7148L95.2666 87.619Z" fill="#F8F6F2"/>
<path d="M131.218 27.9189C130.031 26.8901 129.349 25.7827 129.349 25C129.644 25.782 130.263 26.8955 131.218 27.9189C132.574 29.094 134.589 30.1665 137 30.5354C134.435 30.5354 132.517 29.3103 131.218 27.9189Z" fill="#F8F6F2"/>
<path d="M26.4064 156.465C10.227 153.783 5.5398 140.205 3.45313 133.286C-2.11116 140.205 3.3732 146.832 4.49677 148.508C14.9303 162.001 24.7211 159.819 26.4064 156.465Z" fill="#F8F6F2"/>
<path d="M116.829 30.5354C117.525 36.0708 120.626 45.9068 131.784 44.0876C122.046 43.5819 118.22 35.0329 116.829 30.5354Z" fill="#F8F6F2"/>
<path d="M132.131 44.0279C132.014 44.049 131.898 44.0689 131.784 44.0876M131.784 44.0876C120.626 45.9068 117.525 36.0708 116.829 30.5354C118.22 35.0329 122.046 43.5819 131.784 44.0876ZM72.9177 63.7477C76.3955 74.4725 87.1768 84.9363 95.2666 87.619L130.392 53.7148C124.213 51.4792 108.348 43.9491 107 30.5354L72.9177 63.7477ZM129.349 25C129.349 26.6767 132.479 29.8435 137 30.5354C132.548 30.5354 130.044 26.8451 129.349 25ZM3.45313 133.286C5.5398 140.205 10.227 153.783 26.4064 156.465C24.7211 159.819 14.9303 162.001 4.49677 148.508C3.3732 146.832 -2.11116 140.205 3.45313 133.286Z" stroke="#F8F6F2"/>
<path d="M29 108.464L32.8289 104L32.4808 106.747C36.3794 121.308 46.8684 126.322 51.6255 127.009L55.4544 125.635L49.8851 130.786C35.1263 128.589 29.6962 114.875 29 108.464Z" fill="#F8F6F2"/>
<path d="M49.8851 130.786C35.1263 128.589 29.6962 114.875 29 108.464L32.8289 104L32.4808 106.747C36.3794 121.308 46.8684 126.322 51.6255 127.009L55.4544 125.635L49.8851 130.786ZM49.8851 130.786C64.6439 132.984 55.9186 131.702 49.8851 130.786Z" stroke="#F8F6F2"/>
</svg>
